<svg width="62" height="54" viewBox="0 0 62 54" fill="none" xmlns="http://www.w3.org/2000/svg">
<path d="M21.1296 41.5385H8.26667C7.71855 41.5385 7.19289 41.3196 6.80531 40.9301C6.41774 40.5406 6.2 40.0124 6.2 39.4615V4.15385H2.06667C1.51855 4.15385 0.992888 3.93503 0.605313 3.54553C0.217737 3.15603 0 2.62776 0 2.07692C0 1.52609 0.217737 0.997816 0.605313 0.608317C0.992888 0.218818 1.51855 0 2.06667 0H59.9333C60.4814 0 61.0071 0.218818 61.3947 0.608317C61.7823 0.997816 62 1.52609 62 2.07692C62 2.62776 61.7823 3.15603 61.3947 3.54553C61.0071 3.93503 60.4814 4.15385 59.9333 4.15385H55.8V39.4615C55.8 40.0124 55.5823 40.5406 55.1947 40.9301C54.8071 41.3196 54.2814 41.5385 53.7333 41.5385H40.8952L48.0541 54H43.2843L36.1253 41.5385H25.8995L18.7405 54H13.9707L21.1296 41.5385ZM51.6667 4.15385H10.3333V37.3846H51.6667V4.15385ZM20.0632 26.3935C19.871 26.5866 19.6429 26.7398 19.3919 26.8443C19.1408 26.9488 18.8717 27.0026 18.6 27.0026C18.3283 27.0026 18.0592 26.9488 17.8081 26.8443C17.5571 26.7398 17.3289 26.5866 17.1368 26.3935C16.9446 26.2004 16.7922 25.9712 16.6882 25.7189C16.5842 25.4666 16.5307 25.1962 16.5307 24.9231C16.5307 24.65 16.5842 24.3796 16.6882 24.1273C16.7922 23.875 16.9446 23.6457 17.1368 23.4526L26.6724 13.8738L34.7737 19.98L41.788 11.1655C41.9522 10.9381 42.1606 10.7465 42.4006 10.6023C42.6406 10.4582 42.9072 10.3644 43.1843 10.3268C43.4614 10.2892 43.7432 10.3085 44.0126 10.3835C44.2821 10.4585 44.5336 10.5877 44.7519 10.7633C44.9703 10.9388 45.1509 11.157 45.2828 11.4047C45.4148 11.6525 45.4954 11.9245 45.5197 12.2044C45.544 12.4844 45.5116 12.7664 45.4243 13.0333C45.337 13.3003 45.1968 13.5466 45.012 13.7575L35.4971 25.7165L27.0609 19.3569L20.0632 26.3894V26.3935Z" fill="url(#paint0_linear_45_915)"/>
<defs>
<linearGradient id="paint0_linear_45_915" x1="-6.70072e-07" y1="14.5298" x2="64.707" y2="24.1127" gradientUnits="userSpaceOnUse">
<stop stop-color="#8257FF"/>
<stop offset="1" stop-color="#FF4C00" stop-opacity="0.52"/>
</linearGradient>
</defs>
</svg>
