<svg width="54" height="54" viewBox="0 0 54 54" fill="none" xmlns="http://www.w3.org/2000/svg">
<path d="M27.27 37.8675C27.27 38.1645 27.4995 38.4075 27.7763 38.4075H40.2638C40.5405 38.4075 40.77 38.1645 40.77 37.8675V34.6275C40.77 34.3305 40.5405 34.0875 40.2638 34.0875H27.7763C27.4995 34.0875 27.27 34.3305 27.27 34.6275V37.8675ZM14.1143 38.2793L27.0742 27.4117C27.3307 27.1957 27.3307 26.7975 27.0742 26.5815L14.1143 15.7207C14.036 15.6542 13.9403 15.6115 13.8386 15.5978C13.7368 15.584 13.6332 15.5997 13.5401 15.6431C13.447 15.6864 13.3683 15.7556 13.3133 15.8423C13.2584 15.9291 13.2294 16.0298 13.23 16.1325V20.3648C13.23 20.5268 13.2975 20.6752 13.4257 20.7765L20.8373 27L13.4257 33.2235C13.3654 33.274 13.3167 33.3369 13.2829 33.408C13.2491 33.4791 13.2311 33.5566 13.23 33.6353V37.8675C13.23 38.3265 13.7633 38.5762 14.1143 38.2793ZM51.84 0H2.16C0.96525 0 0 0.96525 0 2.16V51.84C0 53.0348 0.96525 54 2.16 54H51.84C53.0348 54 54 53.0348 54 51.84V2.16C54 0.96525 53.0348 0 51.84 0ZM49.14 49.14H4.86V4.86H49.14V49.14Z" fill="url(#paint0_linear_39_698)"/>
<defs>
<linearGradient id="paint0_linear_39_698" x1="-5.83612e-07" y1="14.5298" x2="56.6512" y2="21.8371" gradientUnits="userSpaceOnUse">
<stop stop-color="#8257FF"/>
<stop offset="1" stop-color="#FF4C00" stop-opacity="0.52"/>
</linearGradient>
</defs>
</svg>
