<svg width="70" height="70" viewBox="0 0 70 70" fill="none" xmlns="http://www.w3.org/2000/svg">
<g filter="url(#filter0_bd_174_33)">
<path fill-rule="evenodd" clip-rule="evenodd" d="M26.0625 44.0625H12.0625V56.0625H26.0625V60.0625H12.0625C11.0016 60.0625 9.98422 59.6411 9.23407 58.8909C8.48393 58.1408 8.0625 57.1234 8.0625 56.0625V12.0625C8.0625 11.0016 8.48393 9.98422 9.23407 9.23407C9.98422 8.48393 11.0016 8.0625 12.0625 8.0625H44.0625C45.1234 8.0625 46.1408 8.48393 46.8909 9.23407C47.6411 9.98422 48.0625 11.0016 48.0625 12.0625V34.0625H44.0625V28.0625H12.0625V40.0625H26.0625V44.0625ZM44.0625 12.0625H12.0625V24.0625H44.0625V12.0625ZM18.0625 20.0625C19.1671 20.0625 20.0625 19.1671 20.0625 18.0625C20.0625 16.9579 19.1671 16.0625 18.0625 16.0625C16.9579 16.0625 16.0625 16.9579 16.0625 18.0625C16.0625 19.1671 16.9579 20.0625 18.0625 20.0625ZM55.4835 41.208C58.2483 43.1559 60.3807 45.8723 61.6165 49.0205L62.0625 50.0625L61.6165 51.1065C60.3804 54.2544 58.2479 56.9703 55.483 58.9178C52.7182 60.8653 49.4427 61.9587 46.0625 62.0625C42.6823 61.9587 39.4068 60.8653 36.642 58.9178C33.8771 56.9703 31.7446 54.2544 30.5085 51.1065L30.0625 50.0625L30.5085 49.0205C31.7443 45.8723 33.8767 43.1559 36.6415 41.208C39.4064 39.2602 42.682 38.1665 46.0625 38.0625C49.443 38.1665 52.7186 39.2602 55.4835 41.208ZM41.6179 56.7143C42.9335 57.5933 44.4803 58.0625 46.0625 58.0625C48.1834 58.0599 50.2167 57.2161 51.7164 55.7164C53.2161 54.2167 54.0599 52.1834 54.0625 50.0625C54.0625 48.4803 53.5933 46.9335 52.7143 45.6179C51.8352 44.3023 50.5858 43.277 49.124 42.6715C47.6622 42.066 46.0536 41.9075 44.5018 42.2162C42.9499 42.5249 41.5245 43.2868 40.4056 44.4056C39.2868 45.5245 38.5249 46.9499 38.2162 48.5018C37.9075 50.0536 38.066 51.6622 38.6715 53.124C39.277 54.5858 40.3023 55.8352 41.6179 56.7143ZM50.0625 50.0625C50.0625 52.2716 48.2716 54.0625 46.0625 54.0625C43.8534 54.0625 42.0625 52.2716 42.0625 50.0625C42.0625 47.8534 43.8534 46.0625 46.0625 46.0625C48.2716 46.0625 50.0625 47.8534 50.0625 50.0625ZM20.0625 34.0625C20.0625 35.1671 19.1671 36.0625 18.0625 36.0625C16.9579 36.0625 16.0625 35.1671 16.0625 34.0625C16.0625 32.9579 16.9579 32.0625 18.0625 32.0625C19.1671 32.0625 20.0625 32.9579 20.0625 34.0625ZM18.0625 52.0625C19.1671 52.0625 20.0625 51.1671 20.0625 50.0625C20.0625 48.9579 19.1671 48.0625 18.0625 48.0625C16.9579 48.0625 16.0625 48.9579 16.0625 50.0625C16.0625 51.1671 16.9579 52.0625 18.0625 52.0625Z" fill="url(#paint0_linear_174_33)"/>
</g>
<defs>
<filter id="filter0_bd_174_33" x="-41.9375" y="-41.9375" width="154" height="154" filterUnits="userSpaceOnUse" color-interpolation-filters="sRGB">
<feFlood flood-opacity="0" result="BackgroundImageFix"/>
<feGaussianBlur in="BackgroundImageFix" stdDeviation="25"/>
<feComposite in2="SourceAlpha" operator="in" result="effect1_backgroundBlur_174_33"/>
<feColorMatrix in="SourceAlpha" type="matrix" values="0 0 0 0 0 0 0 0 0 0 0 0 0 0 0 0 0 0 127 0" result="hardAlpha"/>
<feOffset/>
<feGaussianBlur stdDeviation="3.7"/>
<feComposite in2="hardAlpha" operator="out"/>
<feColorMatrix type="matrix" values="0 0 0 0 0.636247 0 0 0 0 0.190874 0 0 0 0 0 0 0 0 0.52 0"/>
<feBlend mode="normal" in2="effect1_backgroundBlur_174_33" result="effect2_dropShadow_174_33"/>
<feBlend mode="normal" in="SourceGraphic" in2="effect2_dropShadow_174_33" result="shape"/>
</filter>
<linearGradient id="paint0_linear_174_33" x1="8.0625" y1="22.5923" x2="64.7137" y2="29.8996" gradientUnits="userSpaceOnUse">
<stop stop-color="#6832FF"/>
<stop offset="1" stop-color="#FF601C"/>
</linearGradient>
</defs>
</svg>
