<svg width="54" height="54" viewBox="0 0 54 54" fill="none" xmlns="http://www.w3.org/2000/svg">
<path d="M38 46C40.2091 46 42 44.2091 42 42C42 39.7909 40.2091 38 38 38C35.7909 38 34 39.7909 34 42C34 44.2091 35.7909 46 38 46Z" fill="url(#paint0_linear_52_927)"/>
<path d="M53.554 40.958C52.3182 37.8098 50.1858 35.0934 47.421 33.1455C44.6561 31.1977 41.3805 30.104 38 30C34.6195 30.104 31.3439 31.1977 28.579 33.1455C25.8142 35.0934 23.6818 37.8098 22.446 40.958L22 42L22.446 43.044C23.6821 46.1919 25.8146 48.9078 28.5795 50.8553C31.3443 52.8028 34.6198 53.8962 38 54C41.3802 53.8962 44.6557 52.8028 47.4205 50.8553C50.1854 48.9078 52.3179 46.1919 53.554 43.044L54 42L53.554 40.958ZM38 50C36.4177 50 34.871 49.5308 33.5554 48.6518C32.2398 47.7727 31.2145 46.5233 30.609 45.0615C30.0035 43.5997 29.845 41.9911 30.1537 40.4393C30.4624 38.8874 31.2243 37.462 32.3431 36.3431C33.462 35.2243 34.8874 34.4624 36.4393 34.1537C37.9911 33.845 39.5997 34.0035 41.0615 34.609C42.5233 35.2145 43.7727 36.2398 44.6518 37.5554C45.5308 38.871 46 40.4177 46 42C45.9974 44.1209 45.1536 46.1542 43.6539 47.6539C42.1542 49.1536 40.1209 49.9974 38 50Z" fill="url(#paint1_linear_52_927)"/>
<path d="M10 12C11.1046 12 12 11.1046 12 10C12 8.89543 11.1046 8 10 8C8.89543 8 8 8.89543 8 10C8 11.1046 8.89543 12 10 12Z" fill="#A565C0"/>
<path d="M10 28C11.1046 28 12 27.1046 12 26C12 24.8954 11.1046 24 10 24C8.89543 24 8 24.8954 8 26C8 27.1046 8.89543 28 10 28Z" fill="#A565C0"/>
<path d="M10 44C11.1046 44 12 43.1046 12 42C12 40.8954 11.1046 40 10 40C8.89543 40 8 40.8954 8 42C8 43.1046 8.89543 44 10 44Z" fill="#A565C0"/>
<path d="M4 36H18V32H4V20H36V26H40V4C40 2.93913 39.5786 1.92172 38.8284 1.17157C38.0783 0.421427 37.0609 0 36 0H4C2.93913 0 1.92172 0.421427 1.17157 1.17157C0.421427 1.92172 0 2.93913 0 4V48C0 49.0609 0.421427 50.0783 1.17157 50.8284C1.92172 51.5786 2.93913 52 4 52H18V48H4V36ZM4 4H36V16H4V4Z" fill="url(#paint2_linear_52_927)"/>
<defs>
<linearGradient id="paint0_linear_52_927" x1="-5.83612e-07" y1="14.5298" x2="56.6512" y2="21.8371" gradientUnits="userSpaceOnUse">
<stop stop-color="#8257FF"/>
<stop offset="1" stop-color="#FF4C00" stop-opacity="0.3"/>
</linearGradient>
<linearGradient id="paint1_linear_52_927" x1="-5.83612e-07" y1="14.5298" x2="56.6512" y2="21.8371" gradientUnits="userSpaceOnUse">
<stop stop-color="#8257FF"/>
<stop offset="1" stop-color="#FF4C00" stop-opacity="0.3"/>
</linearGradient>
<linearGradient id="paint2_linear_52_927" x1="-5.83612e-07" y1="14.5298" x2="56.6512" y2="21.8371" gradientUnits="userSpaceOnUse">
<stop stop-color="#8257FF"/>
<stop offset="1" stop-color="#FF4C00" stop-opacity="0.3"/>
</linearGradient>
</defs>
</svg>
