<svg width="55" height="55" viewBox="0 0 55 55" fill="none" xmlns="http://www.w3.org/2000/svg">
<path fill-rule="evenodd" clip-rule="evenodd" d="M18.0625 36.0625H4.0625V48.0625H18.0625V52.0625H4.0625C3.00163 52.0625 1.98422 51.6411 1.23407 50.8909C0.483927 50.1408 0.0625 49.1234 0.0625 48.0625V4.0625C0.0625 3.00163 0.483927 1.98422 1.23407 1.23407C1.98422 0.483927 3.00163 0.0625 4.0625 0.0625H36.0625C37.1234 0.0625 38.1408 0.483927 38.8909 1.23407C39.6411 1.98422 40.0625 3.00163 40.0625 4.0625V26.0625H36.0625V20.0625H4.0625V32.0625H18.0625V36.0625ZM36.0625 4.0625H4.0625V16.0625H36.0625V4.0625ZM10.0625 12.0625C11.1671 12.0625 12.0625 11.1671 12.0625 10.0625C12.0625 8.95793 11.1671 8.0625 10.0625 8.0625C8.95793 8.0625 8.0625 8.95793 8.0625 10.0625C8.0625 11.1671 8.95793 12.0625 10.0625 12.0625ZM47.4835 33.208C50.2483 35.1559 52.3807 37.8723 53.6165 41.0205L54.0625 42.0625L53.6165 43.1065C52.3804 46.2544 50.2479 48.9703 47.483 50.9178C44.7182 52.8653 41.4427 53.9587 38.0625 54.0625C34.6823 53.9587 31.4068 52.8653 28.642 50.9178C25.8771 48.9703 23.7446 46.2544 22.5085 43.1065L22.0625 42.0625L22.5085 41.0205C23.7443 37.8723 25.8767 35.1559 28.6415 33.208C31.4064 31.2602 34.682 30.1665 38.0625 30.0625C41.443 30.1665 44.7186 31.2602 47.4835 33.208ZM33.6179 48.7143C34.9335 49.5933 36.4802 50.0625 38.0625 50.0625C40.1834 50.0599 42.2167 49.2161 43.7164 47.7164C45.2161 46.2167 46.0599 44.1834 46.0625 42.0625C46.0625 40.4802 45.5933 38.9335 44.7143 37.6179C43.8352 36.3023 42.5858 35.277 41.124 34.6715C39.6622 34.066 38.0536 33.9075 36.5018 34.2162C34.9499 34.5249 33.5245 35.2868 32.4056 36.4056C31.2868 37.5245 30.5249 38.9499 30.2162 40.5018C29.9075 42.0536 30.066 43.6622 30.6715 45.124C31.277 46.5858 32.3023 47.8352 33.6179 48.7143ZM42.0625 42.0625C42.0625 44.2716 40.2716 46.0625 38.0625 46.0625C35.8534 46.0625 34.0625 44.2716 34.0625 42.0625C34.0625 39.8534 35.8534 38.0625 38.0625 38.0625C40.2716 38.0625 42.0625 39.8534 42.0625 42.0625ZM12.0625 26.0625C12.0625 27.1671 11.1671 28.0625 10.0625 28.0625C8.95793 28.0625 8.0625 27.1671 8.0625 26.0625C8.0625 24.9579 8.95793 24.0625 10.0625 24.0625C11.1671 24.0625 12.0625 24.9579 12.0625 26.0625ZM10.0625 44.0625C11.1671 44.0625 12.0625 43.1671 12.0625 42.0625C12.0625 40.9579 11.1671 40.0625 10.0625 40.0625C8.95793 40.0625 8.0625 40.9579 8.0625 42.0625C8.0625 43.1671 8.95793 44.0625 10.0625 44.0625Z" fill="url(#paint0_linear_174_33)"/>
<defs>
<linearGradient id="paint0_linear_174_33" x1="0.0624994" y1="14.5923" x2="56.7137" y2="21.8996" gradientUnits="userSpaceOnUse">
<stop stop-color="#8257FF"/>
<stop offset="1" stop-color="#FF4C00" stop-opacity="0.52"/>
</linearGradient>
</defs>
</svg>
