<svg width="58" height="58" viewBox="0 0 58 58" fill="none" xmlns="http://www.w3.org/2000/svg">
<path d="M3.09621 54.8107L21.7583 36.0685M45.2589 27.7341L39.6726 44.5679C39.5831 44.8371 39.4302 45.0807 39.2271 45.2781C39.0239 45.4755 38.7764 45.6208 38.5055 45.7017L4.26039 55.9269C3.95187 56.0189 3.62413 56.0242 3.31283 55.9421C3.00153 55.8601 2.71861 55.6938 2.49484 55.4615C2.27108 55.2292 2.11505 54.9397 2.04374 54.6245C1.97242 54.3093 1.98856 53.9805 2.09038 53.6739L13.2102 20.1771C13.2899 19.9366 13.4202 19.7161 13.5922 19.5307C13.7643 19.3452 13.974 19.1991 14.2073 19.1022L30.0043 12.5701C30.3255 12.4369 30.6787 12.4022 31.0195 12.4703C31.3603 12.5384 31.6734 12.7064 31.9192 12.953L44.8337 25.9258C45.0648 26.1579 45.227 26.4499 45.3021 26.7693C45.3772 27.0887 45.3622 27.4227 45.2589 27.7341ZM47.3966 3.50826L54.3289 10.4703C54.8499 10.9709 55.266 11.5709 55.5529 12.2351C55.8398 12.8994 55.9917 13.6145 55.9997 14.3385C56.0076 15.0625 55.8715 15.7808 55.5993 16.4513C55.3271 17.1217 54.9243 17.7308 54.4145 18.2428C53.9047 18.7548 53.2982 19.1593 52.6306 19.4327C51.963 19.7061 51.2478 19.8428 50.5269 19.8348C49.8059 19.8268 49.0939 19.6742 48.4325 19.3861C47.7711 19.0979 47.1736 18.68 46.6752 18.1568L39.74 11.1948C38.7618 10.168 38.2229 8.79737 38.2385 7.37642C38.2541 5.95547 38.8232 4.59715 39.8237 3.59232C40.8242 2.5875 42.1767 2.01604 43.5916 2.00033C45.0065 1.98462 46.3742 2.5259 47.3966 3.50826ZM27.9781 29.8192C27.5723 29.3973 27.087 29.0608 26.5503 28.8292C26.0137 28.5977 25.4365 28.4759 24.8524 28.4708C24.2684 28.4657 23.6891 28.5774 23.1486 28.7996C22.608 29.0217 22.1169 29.3497 21.7039 29.7645C21.2909 30.1792 20.9642 30.6725 20.7431 31.2154C20.5219 31.7583 20.4106 32.34 20.4157 32.9265C20.4208 33.5131 20.5421 34.0928 20.7726 34.6317C21.0032 35.1707 21.3383 35.6581 21.7584 36.0656C22.588 36.8703 23.6991 37.3156 24.8524 37.3055C26.0057 37.2955 27.109 36.8309 27.9245 36.0118C28.7401 35.1928 29.2027 34.0848 29.2127 32.9265C29.2227 31.7683 28.7794 30.6524 27.9781 29.8192Z" stroke="url(#paint0_linear_45_905)" stroke-width="4" stroke-linecap="round" stroke-linejoin="round"/>
<defs>
<linearGradient id="paint0_linear_45_905" x1="2" y1="16.5298" x2="58.6512" y2="23.8371" gradientUnits="userSpaceOnUse">
<stop stop-color="#8257FF"/>
<stop offset="1" stop-color="#FF4C00" stop-opacity="0.3"/>
</linearGradient>
</defs>
</svg>
