<svg width="13" height="13" viewBox="0 0 13 13" fill="none" xmlns="http://www.w3.org/2000/svg">
<path d="M12.8094 6.58394C12.749 6.64111 12.6773 6.68646 12.5984 6.7174C12.5195 6.74834 12.4349 6.76427 12.3495 6.76427C12.2641 6.76427 12.1795 6.74834 12.1006 6.7174C12.0217 6.68646 11.9501 6.64111 11.8897 6.58394L7.14988 2.09941L7.14988 12.3852C7.14988 12.5482 7.0814 12.7046 6.95951 12.8199C6.83762 12.9352 6.6723 13 6.49992 13C6.32755 13 6.16223 12.9352 6.04034 12.8199C5.91845 12.7046 5.84997 12.5482 5.84997 12.3852L5.84997 2.09941L1.11016 6.58394C0.988204 6.69931 0.822793 6.76413 0.650318 6.76413C0.477843 6.76413 0.312432 6.69931 0.190474 6.58394C0.0685154 6.46857 1.28504e-09 6.3121 0 6.14894C-1.28504e-09 5.98578 0.0685154 5.82931 0.190474 5.71394L6.04008 0.180326C6.10044 0.12316 6.17213 0.0778095 6.25103 0.0468678C6.32993 0.0159261 6.41451 0 6.49992 0C6.58534 0 6.66992 0.0159261 6.74882 0.0468678C6.82772 0.0778095 6.89941 0.12316 6.95977 0.180326L12.8094 5.71394C12.8698 5.77104 12.9177 5.83885 12.9505 5.91349C12.9832 5.98813 13 6.06814 13 6.14894C13 6.22974 12.9832 6.30975 12.9505 6.38439C12.9177 6.45903 12.8698 6.52684 12.8094 6.58394Z" fill="white"/>
</svg>
